<svg xmlns="http://www.w3.org/2000/svg" viewBox="0 0 220 280" fill="none">
  <title>Negócios — capa ilustrada</title>
  <defs>
    <linearGradient id="cloth" x2="1" y2="1"><stop stop-color="#fff" stop-opacity=".08"/><stop offset=".55" stop-color="#fff" stop-opacity="0"/><stop offset="1" stop-color="#000" stop-opacity=".12"/></linearGradient>
    <linearGradient id="spine"><stop stop-color="#000" stop-opacity=".24"/><stop offset=".5" stop-color="#000" stop-opacity=".03"/><stop offset=".8" stop-color="#fff" stop-opacity=".12"/><stop offset="1" stop-color="#000" stop-opacity=".16"/></linearGradient>
    <pattern id="weave" width="4" height="4" patternUnits="userSpaceOnUse"><path d="M0 .5H4M.5 0V4" stroke="#fff0c9" stroke-opacity=".045" stroke-width=".5"/></pattern>
  </defs>
  <rect width="220" height="280" rx="8" fill="#bc472f"/>
  <rect width="220" height="280" rx="8" fill="url(#cloth)"/>
  <rect width="220" height="280" rx="8" fill="url(#weave)"/>
  <path d="M8 0H19V280H8Z" fill="url(#spine)"/>
  <path d="M20 6H210Q214 6 214 10V270" stroke="#fff0c9" stroke-opacity=".32"/>
  <path d="M22 0V280" stroke="#000" stroke-opacity=".16"/>
  <g color="#fff0c9" stroke="currentColor" stroke-width="1.15" stroke-linecap="round" stroke-linejoin="round">
    <g transform="translate(5 4)"><path d="M64 142V115H84V142M97 142V93H117V142M130 142V70H150V142M58 147H170M66 99 99 75 117 80 158 42M141 43 158 42 157 59" /><circle cx="158" cy="42" r="13" opacity=".35"/><path d="M65 120H83M98 101H116M131 80H149" opacity=".3"/><path d="M65 126H83M98 110H116M131 96H149" opacity=".3"/><path d="M65 132H83M98 119H116M131 112H149" opacity=".3"/><path d="M65 138H83M98 128H116M131 128H149" opacity=".3"/><path d="M72 43Q72 49 78 49Q72 49 72 55Q72 49 66 49Q72 49 72 43Z" fill="currentColor" stroke="none"/></g>
    <path d="M36 167H65M36 172H53" opacity=".7"/>
    <path d="M173 253H195M181 258H195" opacity=".55"/>
    <path d="M36 262H151" opacity=".16"/>
  </g>
</svg>
