<svg xmlns="http://www.w3.org/2000/svg" viewBox="0 0 224 274" fill="none">
  <defs>
    <filter id="story-book-shadow" x="16" y="67" width="204" height="116" filterUnits="userSpaceOnUse">
      <feDropShadow dx="0" dy="4" stdDeviation="3.5" flood-color="#20362f" flood-opacity=".1"/>
    </filter>
  </defs>

  <g id="discover-story-book" stroke-linecap="round" stroke-linejoin="round">
    <path d="M27 34C45 19 68 20 86 29c10 5 17 12 21 21" stroke="#c5d5c5" stroke-width="1.8" stroke-dasharray="3 7" opacity=".72"/>
    <circle cx="166" cy="21" r="6" fill="#e2a008" stroke="#29483f" stroke-width="1.9"/>
    <circle cx="166" cy="21" r="1.8" fill="#f9ce57"/>

    <g filter="url(#story-book-shadow)">
      <path d="M34 83C61 72 90 78 114 98c24-21 53-25 82-14 3 19 7 42 11 65-30-10-62-6-92 13-26-17-54-21-87-10 2-22 4-46 6-69Z" fill="#fffdf6" stroke="#29483f" stroke-width="2.2"/>
      <path d="M40 91c24-10 49-4 69 12 1 18 3 36 5 52-25-15-51-18-80-9 2-18 4-37 6-55Z" stroke="#496159" stroke-width="1.45"/>
      <path d="M120 103c20-18 46-22 70-14 4 18 8 36 11 54-28-7-55-3-83 12 1-18 1-35 2-52Z" stroke="#496159" stroke-width="1.45"/>
    </g>

    <path d="M45 105c19-7 39-3 57 8m-59 5c21-7 43-3 62 9m27-15c19-11 38-13 56-7m-58 20c21-11 41-13 62-6" stroke="#82908a" stroke-width="1.2" opacity=".74"/>
    <path d="M114 98c-1 21 0 44 1 64" stroke="#29483f" stroke-width="1.8"/>
    <path d="M29 152c32-11 60-6 86 11 30-19 61-23 92-13M31 158c31-10 58-5 84 11 30-18 60-23 90-13" stroke="#667b73" stroke-width="1.25" opacity=".82"/>

    <path d="M56 51c1-3 4-3 6 0l6 13 15 2c3 0 4 4 2 6L74 82l3 15c1 3-2 5-5 4l-14-8-13 8c-3 2-6-1-5-4l4-14-11-10c-2-2-1-5 2-6l15-2 6-14Z" fill="#e55b37" stroke="#29483f" stroke-width="2.2"/>
    <path d="m51 57 5-7m-16 30-8-7" stroke="#f88b6f" stroke-width="1.25" opacity=".85"/>

    <text x="24" y="194" fill="#c5d5c5" font-family="Arial Narrow, Arial, sans-serif" font-size="10.7" font-stretch="condensed" font-weight="700" letter-spacing="1.7">
      <tspan x="24" dy="0">BOAS</tspan>
      <tspan x="24" dy="13.5">HISTÓRIAS</tspan>
      <tspan x="24" dy="13.5">SEMPRE</tspan>
      <tspan x="24" dy="13.5">ENCONTRAM</tspan>
      <tspan x="24" dy="13.5">VOCÊ</tspan>
    </text>

    <path d="M186 177c15 19 15 40 3 56-14 18-45 27-102 19" stroke="#c5d5c5" stroke-width="1.7" stroke-dasharray="3.5 7" opacity=".78"/>
    <path d="m99 245-12 7 12 6" stroke="#29483f" stroke-width="2"/>
  </g>
</svg>
