<svg xmlns="http://www.w3.org/2000/svg" viewBox="0 0 270 300" fill="none">
  <defs>
    <filter id="shelf-action-shadow" x="22" y="168" width="232" height="82" filterUnits="userSpaceOnUse">
      <feDropShadow dx="0" dy="5" stdDeviation="5" flood-color="#1f352e" flood-opacity=".14"/>
    </filter>
  </defs>

  <g id="discover-shelf-action" stroke-linecap="round" stroke-linejoin="round">
    <path d="M218 18c0 7 0 14-1 21m-10-10c7 0 14 0 21-1M190 51l-1 13m-6-7 13 1" stroke="#29483f" stroke-width="2.1"/>
    <path d="M39 71c-7 2-13 5-18 10M22 66c4 3 7 7 9 12" stroke="#58736a" stroke-width="1.8" opacity=".78"/>

    <path d="M76 49c15 2 30 4 45 8l-8 91-22-17-27 13 8-89c0-4 2-6 4-6Z" fill="#fffdf6" stroke="#315148" stroke-width="2.5"/>
    <path d="M80 56c12 1 23 3 34 6" stroke="#d9d1c1" stroke-width="1.4"/>
    <g transform="rotate(-2.5 172 103)">
      <path d="M140 61c13-4 29-8 44-10 3 0 5 2 6 5l19 83c1 4-1 7-5 8l-40 9c-4 1-6-1-7-5l-21-83c-1-3 1-6 4-7Z" fill="#e55733" stroke="#29483f" stroke-width="2.5"/>
      <path d="M151 78c9-3 18-5 28-7m-23 26c9-3 18-5 27-7" stroke="#fff8e9" stroke-width="2.4"/>
    </g>
    <path d="M196 75c28 11 40 30 36 54-3 18-14 31-31 41" stroke="#58736a" stroke-width="2" stroke-dasharray="3 8" opacity=".74"/>
    <path d="m201 170 5-9m-5 9 10 1" stroke="#58736a" stroke-width="2" opacity=".8"/>
    <circle cx="48" cy="158" r="6.5" fill="#e2a008" stroke="#29483f" stroke-width="2"/>
    <circle cx="48" cy="158" r="2" fill="#f8cd55"/>

    <g filter="url(#shelf-action-shadow)">
      <path d="M40 182c0-6 5-10 11-10h173c7 0 11 4 11 10v30c0 7-4 11-11 11H51c-6 0-11-4-11-11v-30Z" fill="#fffdf6" stroke="#d4cbbb" stroke-width="1.4"/>
      <path d="M48 179c36-2 75-2 116-1" stroke="#ffffff" stroke-width="1.2" opacity=".9"/>
    </g>
    <circle cx="65" cy="197.5" r="11.5" fill="#2f8177"/>
    <path d="M65 192v11m-5.5-5.5h11" stroke="#fffdf6" stroke-width="2.2"/>
    <text x="86" y="201.5" fill="#243e36" font-family="Arial, sans-serif" font-size="11.8" font-weight="700">Adicionar à estante</text>

    <g transform="translate(5 6) translate(220 238) scale(.82) translate(-220 -238)">
      <path d="M213 269c-9-4-14-13-14-23v-12c0-3 2-5 5-5 2 0 4 1 5 4v-27c0-3 2-5 5-5s5 2 5 5v17-9c0-3 2-5 5-5s5 2 5 5v11-6c0-3 2-5 5-5s5 2 5 5v16c0 14-7 25-17 30l-4 4Z" fill="#fffdf6" stroke="#29483f" stroke-width="2.2"/>
      <path d="M209 233c1 4 1 8 1 12m9-22v15m10-13v13" stroke="#8a9892" stroke-width="1.2"/>
    </g>
  </g>
</svg>
