<svg xmlns="http://www.w3.org/2000/svg" width="112" height="94" viewBox="0 0 112 94" fill="none">
  <g stroke="#34443A" stroke-width="1.7" stroke-linecap="round" stroke-linejoin="round">
    <path d="m24 29 49-7 12 56-49 8z" fill="#E9C79F"/>
    <path d="m19 23 49-7 12 56-49 8z" fill="#FFFDF6"/>
    <path d="m24 29 37-5 4 18-37 5z" fill="#D98591"/>
    <path d="m30 34 18-3m-17 8 26-4" stroke="#701F3C"/>
    <path d="m29 52 16-2 3 16-16 2z" fill="#D68A00"/>
    <path d="m50 49 16-2m-15 8 16-2m-14 8 15-2m-34 14 34-5" opacity=".65"/>
    <path d="m30 21 10 55" opacity=".2"/>
    <path d="m83 16 3-8m4 15 9-4m-6 13 10 1"/>
    <path d="m13 60-7 2m10 6-4 6" opacity=".65"/>
  </g>
</svg>
